<svg version="1.1" id="Layer_1" xmlns="http://www.w3.org/2000/svg" xmlns:xlink="http://www.w3.org/1999/xlink" x="0px" y="0px"
	 width="100%" viewBox="0 0 240 240" enable-background="new 0 0 240 240" xml:space="preserve">
<path fill="none" opacity="1.000000" stroke="#000000" stroke-linecap="round" stroke-linejoin="round" stroke-width="3.000000"
	d="
M180.000000,108.000000 
	C179.602310,103.337929 180.224319,98.679420 179.200272,93.956573 
	C178.601440,91.194832 179.417755,87.734451 180.636475,85.062241 
	C182.464294,81.054504 182.968277,76.921722 181.845673,73.044685 
	C180.323639,67.788155 181.209183,62.831543 182.665222,58.050316 
	C183.681686,54.712479 183.820801,51.427750 182.846298,48.552086 
	C180.777802,42.448200 182.015717,36.387432 182.711761,30.525145 
	C183.722198,22.015215 179.080780,16.468172 170.527084,19.088428 
	C169.644485,19.358799 168.706848,19.689087 168.018997,19.446192 
	C158.310638,16.017981 148.357971,19.419636 138.454803,18.472736 
	C129.516968,17.618139 120.332443,19.107222 111.476463,16.068600 
	C110.483841,15.728019 109.139259,16.226740 108.004730,16.518414 
	C103.032234,17.796793 98.074379,18.574955 92.994576,17.017689 
	C89.857178,16.055887 86.686325,16.230984 83.494919,16.978304 
	C79.683128,17.870897 76.016144,18.174631 71.958107,17.169046 
	C65.511383,15.571545 61.712612,17.937441 59.029289,24.012936 
	C57.227230,28.093100 55.784466,32.226139 51.039749,34.100616 
	C49.236515,34.813015 48.591000,37.062168 47.979778,38.993603 
	C46.930290,42.309948 45.707966,45.369633 42.575970,47.606377 
	C39.925640,49.499134 39.453773,56.614594 41.549595,59.463516 
	C44.987854,64.137276 47.808392,68.727356 47.753933,75.002205 
	C47.730904,77.655647 50.449211,80.363548 52.012909,82.992317 
	C53.949974,86.248756 55.874836,89.372589 54.612152,93.534027 
	C54.223492,94.814957 54.653381,97.114922 55.587769,97.894852 
	C59.917538,101.509010 61.498531,106.088974 61.567097,111.499153 
	C61.575626,112.172043 62.500000,112.833336 63.000000,113.500000 
"/>
<path fill="none" opacity="1.000000" stroke="#000000" stroke-linecap="round" stroke-linejoin="round" stroke-width="3.000000"
	d="
M66.000000,21.000000 
	C66.962303,24.443687 68.166687,27.814907 68.038635,31.501343 
	C67.943550,34.238583 68.942329,36.893444 70.570015,38.944435 
	C73.776611,42.984955 74.936539,47.781094 74.825790,52.495907 
	C74.667686,59.226849 77.271141,65.547943 77.254410,71.999367 
	C77.234024,79.857643 78.966614,86.966156 81.933205,94.028061 
	C82.409302,95.161392 82.091583,96.674088 81.984222,97.998718 
	C81.508675,103.866188 82.618423,109.471863 84.470932,115.009727 
	C85.722633,118.751526 84.721024,122.671547 85.000000,126.500000 
"/>
<path fill="none" opacity="1.000000" stroke="#000000" stroke-linecap="round" stroke-linejoin="round" stroke-width="2.000000"
	d="
M152.500000,37.000000 
	C160.804276,39.751122 166.499786,44.870392 167.475433,54.002625 
	C168.409332,62.744263 167.747162,66.580986 160.013550,69.042587 
	C154.738022,70.721786 150.099625,73.894417 144.553040,75.221672 
	C141.263565,76.008820 139.321533,75.649574 136.945496,73.562042 
	C134.512482,71.424446 132.662582,68.837120 130.500000,66.500000 
"/>
<path fill="none" opacity="1.000000" stroke="#000000" stroke-linecap="round" stroke-linejoin="round" stroke-width="3.000000"
	d="
M216.000000,68.000000 
	C214.190475,65.372032 212.493073,61.969685 208.541595,64.077965 
	C204.449799,66.261101 201.849762,73.493279 204.715012,76.278847 
	C211.394348,82.772453 207.506607,88.581909 204.889786,94.450859 
	C202.988983,98.713951 200.902466,102.946640 198.688187,107.100327 
	C196.173874,111.816910 191.874435,111.746635 187.975159,112.917229 
	C186.079758,113.486229 185.639694,112.149521 186.500000,110.500000 
"/>
<path fill="none" opacity="1.000000" stroke="#000000" stroke-linecap="round" stroke-linejoin="round" stroke-width="3.000000"
	d="
M64.000000,138.000000 
	C64.500000,143.000000 64.878685,148.016068 65.538216,152.994934 
	C66.070396,157.012466 66.025429,160.564117 64.187241,164.585587 
	C60.032368,173.675323 61.679554,178.830429 67.592194,182.864883 
	C68.650032,183.586670 70.673859,184.938400 72.499748,183.499680 
	C74.401573,182.001114 73.392792,180.361847 72.455475,179.031372 
	C70.929771,176.865692 73.633820,174.553802 72.000000,172.500000 
"/>
<path fill="none" opacity="1.000000" stroke="#000000" stroke-linecap="round" stroke-linejoin="round" stroke-width="2.000000"
	d="
M64.500000,42.000000 
	C64.233818,40.847549 64.722801,39.718811 64.072723,38.462376 
	C62.694603,35.798824 60.689163,35.120937 58.500004,37.000004 
	C53.455677,41.329792 53.711384,50.535320 59.201153,55.169815 
	C64.469940,52.498905 63.258183,46.790592 65.000000,42.500000 
"/>
<path fill="none" opacity="1.000000" stroke="#000000" stroke-linecap="round" stroke-linejoin="round" stroke-width="3.000000"
	d="
M129.000000,146.000000 
	C127.599609,145.218414 126.117027,144.969635 124.499916,144.974777 
	C110.666725,145.018784 96.833313,145.009674 83.000038,144.980331 
	C81.972229,144.978149 81.091629,145.062408 80.500000,146.000000 
"/>
<path fill="none" opacity="1.000000" stroke="#000000" stroke-linecap="round" stroke-linejoin="round" stroke-width="3.000000"
	d="
M77.000000,89.500000 
	C76.666672,88.833328 76.055382,88.169487 76.048569,87.499504 
	C76.020485,84.737366 74.765877,83.078186 71.999451,83.041656 
	C69.151924,83.004066 67.653915,84.650208 67.499130,87.499954 
	C67.234497,92.372025 67.647850,97.066605 70.584503,101.393593 
	C76.124161,99.037422 75.357109,93.861458 77.000000,90.000000 
"/>
<path fill="none" opacity="1.000000" stroke="#000000" stroke-linecap="round" stroke-linejoin="round" stroke-width="3.000000"
	d="
M107.000000,107.500000 
	C104.563698,110.329353 105.181274,112.620720 107.384789,115.585625 
	C111.016937,120.472786 127.947769,122.472122 133.463776,119.921661 
	C134.399582,119.488960 135.766617,118.933289 135.985657,117.569748 
	C134.809845,114.341621 133.654922,111.170807 132.500000,108.000000 
"/>
<path fill="none" opacity="1.000000" stroke="#000000" stroke-linecap="round" stroke-linejoin="round" stroke-width="3.000000"
	d="
M207.500000,69.500000 
	C209.287872,69.387894 208.894852,71.584167 210.456802,72.124786 
	C212.750763,72.918747 214.681931,73.788910 215.977203,70.989456 
	C217.095428,68.572678 219.232605,67.916092 221.414108,66.827827 
	C223.325562,65.874275 224.510651,65.978500 225.997284,67.003944 
	C227.819443,68.260849 228.073959,70.453651 227.394592,71.952217 
	C224.932495,77.383209 222.954590,83.441307 215.997574,84.989098 
	C214.069305,85.418091 213.630676,86.710869 212.868698,88.442215 
	C210.074707,94.790733 207.574722,101.273369 204.733276,107.604698 
	C201.350601,115.142021 195.903244,117.680855 188.499176,117.979393 
	C186.713165,118.051399 185.174515,118.072937 186.500000,120.500000 
"/>
<path fill="none" opacity="1.000000" stroke="#000000" stroke-linecap="round" stroke-linejoin="round" stroke-width="3.000000"
	d="
M125.000000,57.500000 
	C126.003120,55.666668 126.723198,53.758682 124.977646,52.022472 
	C123.447868,50.500866 121.330635,50.758705 119.511398,51.067215 
	C116.303406,51.611221 112.461037,55.894299 113.097336,58.476009 
	C113.936531,61.880985 115.532784,64.902924 119.474159,66.086090 
	C121.576469,66.717186 123.289162,66.049446 124.399429,64.902634 
	C125.713699,63.545109 125.277748,61.555557 124.000000,60.000000 
"/>
<path fill="none" opacity="1.000000" stroke="#000000" stroke-linecap="round" stroke-linejoin="round" stroke-width="3.000000"
	d="
M88.000000,25.000000 
	C82.142975,27.211964 80.920944,28.875961 80.951714,33.500320 
	C80.975327,37.050957 83.167343,38.166168 86.004951,38.450623 
	C89.180031,38.768902 94.147133,35.027821 95.000000,32.000000 
	C95.900719,28.802299 93.531410,26.432995 88.500000,25.500000 
"/>
<path fill="none" opacity="1.000000" stroke="#000000" stroke-linecap="round" stroke-linejoin="round" stroke-width="3.000000"
	d="
M67.000000,72.500000 
	C66.666664,72.000000 66.010597,71.467270 66.057396,71.005821 
	C66.234322,69.261047 65.683617,67.891220 63.986462,67.571976 
	C62.729965,67.335617 61.314915,67.834526 60.518047,69.012215 
	C58.359417,72.202431 57.231220,75.632729 58.501534,79.499496 
	C58.912045,80.749062 59.188198,81.971100 60.997658,82.052246 
	C62.738785,82.130325 63.901382,81.646400 64.497520,79.999100 
	C65.340637,77.669312 66.166664,75.333336 67.000000,73.000000 
"/>
<path fill="none" opacity="1.000000" stroke="#000000" stroke-linecap="round" stroke-linejoin="round" stroke-width="3.000000"
	d="
M74.000000,131.500000 
	C73.333336,128.333328 72.847862,125.114479 71.954651,122.013062 
	C70.809181,118.035782 69.137238,114.364723 63.939034,114.552467 
	C60.163879,119.155380 59.600731,124.890144 59.079483,130.507370 
	C58.643143,135.209625 60.744095,137.081039 65.499458,136.975677 
	C67.475708,136.931915 69.088409,137.078033 69.522667,139.495926 
	C69.951637,141.884338 71.619942,143.624481 73.000000,145.500000 
"/>
<path fill="none" opacity="1.000000" stroke="#000000" stroke-linecap="round" stroke-linejoin="round" stroke-width="8.000000"
	d="
M103.500000,79.000000 
	C103.604919,86.274452 107.664131,91.953217 111.724976,97.330086 
	C112.878792,98.857826 113.001709,100.632492 114.302147,102.167603 
	C119.093666,107.823761 125.755493,105.910240 131.509949,107.463120 
	C131.934082,107.577583 132.629517,107.304451 132.978149,106.976761 
	C134.722824,105.336868 136.641571,103.809654 136.522232,100.999054 
	C136.416275,98.503555 136.500000,96.000000 136.500000,93.500000 
"/>
<path fill="none" opacity="1.000000" stroke="#000000" stroke-linecap="round" stroke-linejoin="round" stroke-width="4.000000"
	d="
M172.000000,134.000000 
	C173.436630,136.333328 172.294571,138.751465 171.909302,140.984344 
	C170.677216,148.125061 173.042160,155.475815 170.414917,162.241165 
	C164.982346,162.823257 159.491165,163.411636 154.000000,164.000000 
"/>
<path fill="none" opacity="1.000000" stroke="#000000" stroke-linecap="round" stroke-linejoin="round" stroke-width="3.000000"
	d="
M138.500000,81.500000 
	C145.836899,84.746666 153.374100,83.561493 161.982498,79.958199 
	C164.099854,79.071915 166.291946,77.979889 167.944031,76.439964 
	C172.495895,72.197189 172.115387,70.344757 166.500000,67.000000 
"/>
<path fill="none" opacity="1.000000" stroke="#000000" stroke-linecap="round" stroke-linejoin="round" stroke-width="2.000000"
	d="
M171.000000,144.500000 
	C161.476471,143.325333 151.993500,144.462585 142.500000,145.000000 
"/>
<path fill="none" opacity="1.000000" stroke="#000000" stroke-linecap="round" stroke-linejoin="round" stroke-width="3.000000"
	d="
M140.500000,122.500000 
	C137.794083,128.701431 132.173981,127.046967 127.508560,126.822250 
	C124.514320,126.678040 121.495354,126.369919 118.502388,126.541603 
	C113.347885,126.837273 109.072212,125.145576 105.500000,121.500000 
"/>
<path fill="none" opacity="1.000000" stroke="#000000" stroke-linecap="round" stroke-linejoin="round" stroke-width="2.000000"
	d="
M102.000000,40.500000 
	C93.148796,48.070435 91.949219,57.199532 96.500000,67.500000 
"/>
<path fill="none" opacity="1.000000" stroke="#000000" stroke-linecap="round" stroke-linejoin="round" stroke-width="3.000000"
	d="
M97.500000,119.000000 
	C94.162750,120.397133 91.611786,122.252243 91.945518,126.504280 
	C92.147598,129.078918 93.296883,129.180634 95.503639,129.101486 
	C98.509651,128.993668 100.101723,127.110359 100.867966,124.953102 
	C101.736389,122.508186 100.906876,120.046562 98.000000,119.000000 
"/>
<path fill="none" opacity="1.000000" stroke="#000000" stroke-linecap="round" stroke-linejoin="round" stroke-width="3.000000"
	d="
M150.000000,91.500000 
	C150.000000,94.509247 150.000000,97.518494 150.000000,101.133766 
	C145.081360,100.612129 140.761841,101.368629 136.500000,102.500000 
"/>
<path fill="none" opacity="1.000000" stroke="#000000" stroke-linecap="round" stroke-linejoin="round" stroke-width="3.000000"
	d="
M216.000000,62.500000 
	C219.791061,62.632370 221.987503,60.570843 224.113647,57.580818 
	C226.219849,54.618855 229.320663,52.371914 231.080612,48.913120 
	C229.142166,45.338123 225.970276,46.692249 224.102844,48.133266 
	C219.957489,51.332104 216.984451,55.609337 215.964142,60.993206 
	C215.702896,62.371784 215.000000,63.666668 214.500000,65.000000 
"/>
<path fill="none" opacity="1.000000" stroke="#000000" stroke-linecap="round" stroke-linejoin="round" stroke-width="3.000000"
	d="
M123.750000,156.000000 
	C126.465454,159.792999 127.907906,159.929886 130.530853,157.027893 
	C132.793671,154.524338 133.211502,151.668839 133.026581,148.498444 
	C132.890945,146.173035 133.039276,143.832504 132.990265,141.500198 
	C132.926147,138.449188 128.181061,134.284653 124.001060,133.494385 
	C118.742844,132.500244 113.557770,132.981720 108.523247,134.573517 
	C106.875458,135.094513 105.523384,135.065094 103.995384,134.512772 
	C100.226440,133.150452 96.388893,133.320129 92.494720,133.968262 
	C89.944069,134.392761 87.590675,134.859268 84.893814,133.169479 
	C82.252174,131.514297 78.443733,131.817032 75.571358,132.725586 
	C73.199814,133.475723 71.997841,136.913864 69.000000,137.500000 
"/>
<path fill="none" opacity="1.000000" stroke="#000000" stroke-linecap="round" stroke-linejoin="round" stroke-width="3.000000"
	d="
M190.000000,111.000000 
	C189.137360,108.949638 189.262543,106.121300 185.486603,106.938034 
	C179.620483,108.206863 177.255173,110.044472 177.013123,114.500710 
	C176.768265,119.008446 177.607803,123.602859 175.992172,127.997124 
	C174.261124,132.705261 172.721298,133.315750 167.495636,133.111572 
	C164.708862,133.002701 161.902298,132.849594 158.913605,133.694336 
	C156.364426,134.414810 153.263901,134.934311 149.914642,133.739212 
	C143.628754,131.496246 137.535950,133.399048 132.500000,138.000000 
"/>
<path fill="none" opacity="1.000000" stroke="#000000" stroke-linecap="round" stroke-linejoin="round" stroke-width="2.000000"
	d="
M107.000000,135.500000 
	C109.459518,138.922089 113.442650,139.548584 116.981453,141.043900 
	C118.894089,141.852051 120.264809,141.372314 121.489357,139.990570 
	C123.037552,138.243637 124.794991,136.822281 127.000000,136.000000 
"/>
<path fill="none" opacity="1.000000" stroke="#000000" stroke-linecap="round" stroke-linejoin="round" stroke-width="4.000000"
	d="
M153.500000,164.000000 
	C147.142822,163.260803 140.798233,163.195984 134.502258,164.510803 
	C130.823196,165.279114 127.243385,164.009766 123.484848,164.310745 
	C114.197716,165.054443 104.813965,164.521637 95.506226,165.100113 
	C88.257011,165.550674 81.726097,163.958099 75.500000,160.500000 
"/>
<path fill="none" opacity="1.000000" stroke="#000000" stroke-linecap="round" stroke-linejoin="round" stroke-width="3.000000"
	d="
M115.500000,76.500000 
	C112.650879,71.302307 108.234604,68.121803 102.486465,67.074257 
	C99.766579,66.578583 96.968811,67.166916 95.011940,69.509972 
	C92.972115,71.952393 93.939613,74.266220 95.500000,76.500000 
"/>
<path fill="none" opacity="1.000000" stroke="#000000" stroke-linecap="round" stroke-linejoin="round" stroke-width="8.000000"
	d="
M94.000000,152.000000 
	C91.681084,155.393600 92.334831,157.104156 95.991592,158.033096 
	C101.575531,159.451599 106.991234,157.434372 112.500145,157.484100 
	C116.000084,157.515701 119.535347,158.817764 123.000000,157.250000 
"/>
<path fill="none" opacity="1.000000" stroke="#000000" stroke-linecap="round" stroke-linejoin="round" stroke-width="3.000000"
	d="
M87.500000,135.000000 
	C87.666672,144.833328 87.833336,154.666672 88.000000,164.500000 
"/>
<path fill="none" opacity="1.000000" stroke="#000000" stroke-linecap="round" stroke-linejoin="round" stroke-width="3.000000"
	d="
M102.500000,39.500000 
	C110.563904,36.387768 118.543785,34.318569 126.006081,40.993202 
	C131.746414,46.127628 133.511154,52.551319 132.516052,60.002144 
	C131.443497,68.033096 126.692017,73.087074 119.471001,75.926247 
	C116.748123,76.996834 113.767586,77.342171 112.500000,80.500000 
"/>
<path fill="none" opacity="1.000000" stroke="#000000" stroke-linecap="round" stroke-linejoin="round" stroke-width="3.000000"
	d="
M137.000000,172.000000 
	C137.539856,177.821533 135.877762,183.768890 138.000000,189.500000 
"/>
<path fill="none" opacity="1.000000" stroke="#000000" stroke-linecap="round" stroke-linejoin="round" stroke-width="3.000000"
	d="
M142.000000,172.000000 
	C142.033752,177.913376 141.812042,183.797562 140.000000,189.500000 
"/>
<path fill="none" opacity="1.000000" stroke="#000000" stroke-linecap="round" stroke-linejoin="round" stroke-width="13.000000"
	d="
M165.000000,155.750000 
	C162.255615,152.432571 159.307419,152.921371 155.973572,154.956726 
	C152.198669,157.261368 148.672928,157.163834 144.906586,154.115417 
	C141.862183,151.651352 138.497559,148.968918 134.000000,149.500000 
"/>
<path fill="none" opacity="1.000000" stroke="#000000" stroke-linecap="round" stroke-linejoin="round" stroke-width="3.000000"
	d="
M96.500000,175.500000 
	C96.333328,179.333328 96.118568,183.165421 96.019157,187.000504 
	C95.964920,189.092773 95.596375,191.004745 94.000000,192.500000 
"/>
<path fill="none" opacity="1.000000" stroke="#000000" stroke-linecap="round" stroke-linejoin="round" stroke-width="4.000000"
	d="
M108.500000,165.500000 
	C108.500000,170.728470 106.484650,173.720108 100.983063,174.352737 
	C95.883339,174.939133 90.324684,176.036316 85.980339,171.518906 
	C84.266647,169.736954 83.412178,167.896957 84.500000,165.500000 
"/>
<path fill="none" opacity="1.000000" stroke="#000000" stroke-linecap="round" stroke-linejoin="round" stroke-width="3.000000"
	d="
M95.000000,196.500000 
	C96.697899,201.953598 97.384491,207.437851 95.500000,213.000000 
"/>
<path fill="none" opacity="1.000000" stroke="#000000" stroke-linecap="round" stroke-linejoin="round" stroke-width="3.000000"
	d="
M91.000000,175.500000 
	C91.541756,180.820312 89.852760,186.280029 92.000000,191.500000 
"/>
<path fill="none" opacity="1.000000" stroke="#000000" stroke-linecap="round" stroke-linejoin="round" stroke-width="7.000000"
	d="
M133.000000,150.000000 
	C127.666664,150.000000 122.333336,150.000000 117.000000,150.000000 
"/>
<path fill="none" opacity="1.000000" stroke="#000000" stroke-linecap="round" stroke-linejoin="round" stroke-width="3.000000"
	d="
M190.000000,119.000000 
	C189.032547,125.163803 185.207520,126.846817 177.500000,124.500000 
"/>
<path fill="none" opacity="1.000000" stroke="#000000" stroke-linecap="round" stroke-linejoin="round" stroke-width="3.000000"
	d="
M151.500000,30.500000 
	C150.925415,33.982441 151.362198,37.399082 145.498505,37.375782 
	C142.015991,37.361946 140.557068,36.912113 140.087723,33.985931 
	C139.761749,31.953712 138.533798,32.665897 137.500000,32.500000 
"/>
<path fill="none" opacity="1.000000" stroke="#000000" stroke-linecap="round" stroke-linejoin="round" stroke-width="7.000000"
	d="
M139.000000,191.000000 
	C138.885971,199.005844 138.477982,207.017822 139.500000,215.000000 
"/>
<path fill="none" opacity="1.000000" stroke="#000000" stroke-linecap="round" stroke-linejoin="round" stroke-width="3.000000"
	d="
M134.500000,92.000000 
	C130.000000,90.348022 125.500000,90.525116 121.000000,92.000000 
"/>
<path fill="none" opacity="1.000000" stroke="#000000" stroke-linecap="round" stroke-linejoin="round" stroke-width="3.000000"
	d="
M92.000000,196.500000 
	C90.167862,200.466904 91.042915,204.955292 89.647163,209.050156 
	C89.428535,209.691589 91.166672,211.000000 92.000008,212.000000 
"/>
<path fill="none" opacity="1.000000" stroke="#000000" stroke-linecap="round" stroke-linejoin="round" stroke-width="3.000000"
	d="
M74.250000,147.000000 
	C76.240067,149.503540 76.578926,151.609436 75.286789,155.105988 
	C73.467850,160.028076 74.598145,165.644974 77.111252,170.441711 
	C78.092812,172.315231 78.555542,174.037292 77.414841,175.430267 
	C75.799225,177.403183 74.481773,174.915375 73.000000,174.500000 
"/>
<path fill="none" opacity="1.000000" stroke="#000000" stroke-linecap="round" stroke-linejoin="round" stroke-width="2.000000"
	d="
M174.500000,24.999998 
	C172.833328,26.333332 170.815796,27.418188 169.630295,29.092268 
	C168.907623,30.112762 168.170654,32.013783 169.947876,33.559914 
	C171.368561,34.795868 172.790009,34.105675 173.979599,33.888348 
	C176.134094,33.494755 177.021713,31.519321 177.491913,29.498119 
	C177.988251,27.364649 176.564713,26.376223 175.000000,25.500000 
"/>
<path fill="none" opacity="1.000000" stroke="#000000" stroke-linecap="round" stroke-linejoin="round" stroke-width="3.000000"
	d="
M166.500000,113.000000 
	C170.405243,117.267944 169.990921,118.510925 163.500000,122.000000 
	C159.433228,117.785484 159.805237,116.446236 166.000000,113.000000 
"/>
<path fill="none" opacity="1.000000" stroke="#000000" stroke-linecap="round" stroke-linejoin="round" stroke-width="3.000000"
	d="
M158.500000,89.500000 
	C151.833328,90.333336 145.166672,91.166672 138.500000,92.000000 
"/>
<path fill="none" opacity="1.000000" stroke="#000000" stroke-linecap="round" stroke-linejoin="round" stroke-width="3.000000"
	d="
M141.000000,38.000000 
	C137.494507,40.642357 134.097122,43.398815 131.500000,47.000000 
"/>
<path fill="none" opacity="1.000000" stroke="#000000" stroke-linecap="round" stroke-linejoin="round" stroke-width="3.000000"
	d="
M131.500000,165.500000 
	C130.665649,169.945374 134.800919,170.998947 137.026978,171.197464 
	C140.217712,171.481995 143.714691,171.459854 146.987396,170.923157 
	C150.759048,170.304642 153.809174,168.475845 154.000000,164.000000 
"/>
<path fill="none" opacity="1.000000" stroke="#000000" stroke-linecap="round" stroke-linejoin="round" stroke-width="2.000000"
	d="
M224.500000,71.500000 
	C222.864273,71.558083 223.000214,73.324097 222.661636,74.073067 
	C221.761688,76.063759 220.414322,77.417664 218.501083,77.397415 
	C215.971664,77.370644 215.652817,74.899666 215.000000,73.000000 
"/>
<path fill="none" opacity="1.000000" stroke="#000000" stroke-linecap="round" stroke-linejoin="round" stroke-width="2.000000"
	d="
M139.000000,135.500000 
	C141.479919,137.360016 143.959824,139.220032 146.411972,141.059204 
	C148.329208,139.494949 150.164612,137.997482 152.000000,136.500000 
"/>
<path fill="none" opacity="1.000000" stroke="#000000" stroke-linecap="round" stroke-linejoin="round" stroke-width="4.000000"
	d="
M101.500000,169.500000 
	C99.009186,169.265076 96.739464,170.061935 94.569313,170.995636 
	C92.809189,170.985977 94.358002,168.380264 92.500000,168.500000 
"/>
<path fill="none" opacity="1.000000" stroke="#000000" stroke-linecap="round" stroke-linejoin="round" stroke-width="3.000000"
	d="
M142.500000,153.000000 
	C141.435913,155.440170 141.009415,157.922852 142.000000,160.500000 
"/>
<path fill="none" opacity="1.000000" stroke="#000000" stroke-linecap="round" stroke-linejoin="round" stroke-width="3.000000"
	d="
M67.500000,174.500000 
	C67.166672,176.833328 66.833336,179.166672 66.500000,181.500000 
"/>
<path fill="none" opacity="1.000000" stroke="#000000" stroke-linecap="round" stroke-linejoin="round" stroke-width="3.000000"
	d="
M84.500000,149.000000 
	C82.043762,148.473007 79.859016,149.846420 77.500000,150.000000 
"/>
<path fill="none" opacity="1.000000" stroke="#000000" stroke-linecap="round" stroke-linejoin="round" stroke-width="3.000000"
	d="
M109.500000,104.000000 
	C107.398453,105.955841 104.821236,104.582001 102.500000,105.000000 
"/>
<path fill="none" opacity="1.000000" stroke="#000000" stroke-linecap="round" stroke-linejoin="round" stroke-width="3.000000"
	d="
M149.500000,84.000000 
	C150.236099,86.597237 153.763901,86.402763 154.500000,89.000000 
"/>
<path fill="none" opacity="1.000000" stroke="#000000" stroke-linecap="round" stroke-linejoin="round" stroke-width="3.000000"
	d="
M150.500000,151.000000 
	C148.513000,151.411346 146.221527,149.995804 144.500000,152.000000 
"/>
<path fill="none" opacity="1.000000" stroke="#000000" stroke-linecap="round" stroke-linejoin="round" stroke-width="2.000000"
	d="
M222.500000,62.000000 
	C223.712463,63.060432 224.960236,64.103210 224.500000,66.000000 
"/>
<path fill="none" opacity="1.000000" stroke="#000000" stroke-linecap="round" stroke-linejoin="round" stroke-width="3.000000"
	d="
M99.500000,78.000000 
	C102.193573,78.747231 105.603180,77.203156 107.500000,80.500000 
"/>
<path fill="none" opacity="1.000000" stroke="#000000" stroke-linecap="round" stroke-linejoin="round" stroke-width="2.000000"
	d="
M186.000000,113.500000 
	C184.044449,114.833336 185.466599,116.166664 186.000000,117.500000 
"/>
<path fill="none" opacity="1.000000" stroke="#000000" stroke-linecap="round" stroke-linejoin="round" stroke-width="3.000000"
	d="
M166.500000,95.000000 
	C163.968582,95.961998 163.355576,98.274933 162.462280,100.484756 
	C161.529526,102.792229 161.804550,104.930428 163.558380,106.431793 
	C165.238510,107.870079 167.198151,106.873466 169.010208,106.021706 
	C171.310059,104.940659 173.195251,103.400902 173.956879,100.986397 
	C175.140167,97.235146 172.456619,95.000000 167.000000,95.000000 
"/>
</svg>